<svg width="262" height="232" viewBox="0 0 262 232" fill="none" xmlns="http://www.w3.org/2000/svg">
<g opacity="0.9">
<path d="M150.415 112.451H143.912V118.698H150.415V112.451Z" fill="white"/>
<path d="M141.002 112.451H134.581V118.698H141.002V112.451Z" fill="white"/>
<path d="M159.603 101.631V128.892L153.347 126.865V118.695V112.448V103.679L159.603 101.631Z" fill="white"/>
<path d="M129.179 163.796H94.3052L96.9067 157.55V157.529L126.577 157.55L129.179 163.796Z" fill="white"/>
<path d="M112.085 154.614H100.109L107.419 147.912H119.477L112.085 154.614Z" fill="white"/>
<path d="M110.638 144.971H121.396L118.773 138.725H104.671L102.111 144.971H110.638ZM119.682 144.971H120.673H118.422H119.682Z" fill="white"/>
<path d="M73.1821 102.123L79.5828 104.791V111.844L73.1821 109.321V102.123Z" fill="white"/>
<path d="M88.9288 108.658V115.505L82.5281 113.002V105.99L88.9288 108.658Z" fill="white"/>
<path d="M82.5281 118.732L88.9288 116.084V122.951L82.5281 125.599V118.732Z" fill="white"/>
<path d="M70.2505 100.904V125.725V130.71L63.8911 133.357V130.896V105.144L70.2505 100.925V100.904Z" fill="white"/>
<path d="M73.1821 122.619L79.5828 119.951V126.818L73.1821 129.486V122.619Z" fill="white"/>
<path d="M87.0506 150.039L92.8526 155.851L90.2716 162.119L84.2013 156.038L65.6187 137.422L71.8955 134.857L87.0506 150.039Z" fill="white"/>
<path d="M94.9793 144.353L96.8582 146.214L94.0501 152.957L90.2304 149.11L88.3721 147.269L83.458 142.326L88.2069 137.568L91.4485 140.816L94.9793 144.353Z" fill="white"/>
<path d="M98.0726 143.274L92.7869 138.02L84.4041 129.623L90.6189 127.037L100.612 137.048L98.0726 143.274Z" fill="white"/>
<path d="M130.261 92.9026L125.72 97.4512L130.129 101.868L134.67 97.3195L130.261 92.9026Z" fill="white"/>
<path d="M136.85 86.3137L132.353 90.8184L136.762 95.2353L141.259 90.7306L136.85 86.3137Z" fill="white"/>
<path d="M143.419 79.7141L138.893 84.248L143.302 88.665L147.828 84.131L143.419 79.7141Z" fill="white"/>
<path d="M136.774 136.409L132.365 140.826L136.861 145.331L141.27 140.914L136.774 136.409Z" fill="white"/>
<path d="M130.141 129.753L125.731 134.17L130.272 138.718L134.681 134.302L130.141 129.753Z" fill="white"/>
<path d="M143.317 142.948L138.908 147.365L143.434 151.899L147.843 147.482L143.317 142.948Z" fill="white"/>
<path d="M96.9189 85.434L92.6449 89.6948L89.6304 83.2622L94.1522 78.7324L96.9189 85.434Z" fill="white"/>
<path d="M100.704 94.5989L98.4741 96.8534L96.781 98.5495L91.1443 104.175L90.6074 104.713L84.3926 102.128L93.973 92.5305L94.0762 92.4271L98.1231 88.373L100.704 94.5989Z" fill="white"/>
<path d="M88.7915 97.7168L85.3228 101.192L88.7915 97.7168Z" fill="white"/>
<path d="M92.9452 75.7952L71.8436 96.934L65.5874 94.3279L70.0059 89.9222L85.5121 74.3887L92.9245 75.7745L92.9452 75.7952Z" fill="white"/>
<path d="M85.8852 96.4962L81.4666 100.923L74.7769 98.1509L79.1954 93.7246L85.8852 96.4962Z" fill="white"/>
<path d="M88.7915 97.7168L85.3228 101.192L88.7915 97.7168Z" fill="white"/>
<path d="M88.7915 97.7168L85.3228 101.192L88.7915 97.7168Z" fill="white"/>
<path d="M108.584 86.7324H121.489L118.908 92.9996H104.682L102.08 86.7324H108.584Z" fill="white"/>
<path d="M129.274 67.9121L126.672 74.1793H96.8783L94.2974 67.9121H101.565V67.9328L129.274 67.9121Z" fill="white"/>
<path d="M107.472 83.7777H100.865L98.0774 77.0762H104.974L107.472 83.7777Z" fill="white"/>
</g>
<path d="M71.0444 230L2 162" stroke="#43F4FF" stroke-width="3" stroke-linecap="round"/>
<path d="M225.644 165V70.5" stroke="#43F4FF" stroke-width="3" stroke-linecap="round"/>
<path d="M67.5422 2.00003L2 69" stroke="#43F4FF" stroke-width="3" stroke-linecap="round"/>
</svg>
