<svg width="80" height="80" viewBox="0 0 80 80" fill="none" xmlns="http://www.w3.org/2000/svg">
<g clip-path="url(#clip0_3829_42712)">
<circle cx="40" cy="40" r="40" fill="#F5F6FB"/>
<path d="M61.1003 38.1543H57.6348V41.5421H61.1003V38.1543Z" fill="black"/>
<path d="M56.0827 38.1543H52.6611V41.5421H56.0827V38.1543Z" fill="black"/>
<path d="M65.9917 32.291V47.076L62.6582 45.9767V41.5457V38.1579V33.4016L65.9917 32.291Z" fill="black"/>
<path d="M49.7977 65.9966H31.2158L32.602 62.6089V62.5977L48.4114 62.6089L49.7977 65.9966Z" fill="black"/>
<path d="M40.6886 61.0135H34.3076L38.2022 57.3789H44.6272L40.6886 61.0135Z" fill="black"/>
<path d="M39.9187 55.7882H45.6506L44.2534 52.4004H36.7392L35.375 55.7882H39.9187ZM44.7374 55.7882H45.2655H44.0663H44.7374Z" fill="black"/>
<path d="M19.9541 32.5527L23.3646 33.9998V37.8251L19.9541 36.4565V32.5527Z" fill="black"/>
<path d="M28.3383 36.0955V39.8086L24.9277 38.4513V34.6484L28.3383 36.0955Z" fill="black"/>
<path d="M24.9277 41.5648L28.3383 40.1289V43.8532L24.9277 45.2891V41.5648Z" fill="black"/>
<path d="M18.3885 31.8906V45.3519V48.0554L15 49.4913V48.1564V34.1903L18.3885 31.9018V31.8906Z" fill="black"/>
<path d="M19.9541 43.6697L23.3646 42.2227V45.9469L19.9541 47.394V43.6697Z" fill="black"/>
<path d="M27.3377 58.5346L30.4292 61.6868L29.054 65.0858L25.8195 61.7877L15.918 51.6918L19.2625 50.3008L27.3377 58.5346Z" fill="black"/>
<path d="M31.5637 55.4529L32.5649 56.4625L31.0687 60.1194L29.0334 58.0329L28.0432 57.0346L25.4248 54.3535L27.9552 51.7734L29.6825 53.5346L31.5637 55.4529Z" fill="black"/>
<path d="M33.2099 54.8684L30.3934 52.0191L25.9268 47.4647L29.2383 46.0625L34.5631 51.4919L33.2099 54.8684Z" fill="black"/>
<path d="M50.3613 27.5507L47.9419 30.0176L50.2912 32.4131L52.7106 29.9462L50.3613 27.5507Z" fill="black"/>
<path d="M53.8701 23.9827L51.4741 26.4258L53.8235 28.8213L56.2195 26.3782L53.8701 23.9827Z" fill="black"/>
<path d="M57.3711 20.4082L54.9595 22.8672L57.3088 25.2627L59.7204 22.8037L57.3711 20.4082Z" fill="black"/>
<path d="M53.8293 51.1553L51.48 53.5508L53.876 55.9939L56.2253 53.5984L53.8293 51.1553Z" fill="black"/>
<path d="M50.2971 47.544L47.9478 49.9395L50.3671 52.4063L52.7165 50.0108L50.2971 47.544Z" fill="black"/>
<path d="M57.3147 54.6905L54.9653 57.0859L57.3769 59.5449L59.7263 57.1494L57.3147 54.6905Z" fill="black"/>
<path d="M32.5965 23.4978L30.3191 25.8087L28.7129 22.32L31.1223 19.8633L32.5965 23.4978Z" fill="black"/>
<path d="M34.6161 28.4742L33.428 29.6969L32.5258 30.6168L29.5224 33.668L29.2363 33.9597L25.9248 32.5575L31.0296 27.3524L31.0846 27.2963L33.2409 25.0977L34.6161 28.4742Z" fill="black"/>
<path d="M28.2672 30.1641L26.4189 32.0486L28.2672 30.1641Z" fill="black"/>
<path d="M30.4845 18.2745L19.2407 29.7391L15.9072 28.3256L18.2616 25.9362L26.5239 17.5117L30.4735 18.2633L30.4845 18.2745Z" fill="black"/>
<path d="M26.7177 29.4993L24.3634 31.8999L20.7988 30.3967L23.1532 27.9961L26.7177 29.4993Z" fill="black"/>
<path d="M28.2672 30.1641L26.4189 32.0486L28.2672 30.1641Z" fill="black"/>
<path d="M28.2672 30.1641L26.4189 32.0486L28.2672 30.1641Z" fill="black"/>
<path d="M38.8166 24.2129H45.6926L44.3174 27.6119H36.7373L35.3511 24.2129H38.8166Z" fill="black"/>
<path d="M49.841 14L48.4547 17.399H32.5793L31.2041 14H35.0767V14.0112L49.841 14Z" fill="black"/>
<path d="M38.2231 22.6033H34.7025L33.2173 18.9688H36.8918L38.2231 22.6033Z" fill="black"/>
</g>
<defs>
<clipPath id="clip0_3829_42712">
<rect width="80" height="80" fill="white"/>
</clipPath>
</defs>
</svg>
