<svg width="157" height="52" viewBox="0 0 157 52" fill="none" xmlns="http://www.w3.org/2000/svg">
<path d="M120.355 21.375C116.67 21.375 113.686 24.4258 113.686 28.1862C113.686 31.9465 116.67 34.9974 120.355 34.9974C122.993 34.9974 125.269 33.4365 126.352 31.1661H123.388C122.632 32.0246 121.556 32.5638 120.355 32.5638C118.454 32.5638 116.857 31.2087 116.365 29.364H120.931H124.346H126.352V29.3569H126.921C126.983 28.9737 127.018 28.5835 127.018 28.1791C127.018 24.4258 124.034 21.375 120.355 21.375ZM116.344 27.1007C116.802 25.2063 118.426 23.8086 120.355 23.8086C122.285 23.8086 123.909 25.2063 124.367 27.1007H116.344Z" fill="#F2F4F8"/>
<path d="M67.6627 32.5709C65.3724 32.5709 63.5193 30.6127 63.5193 28.1862C63.5193 25.7597 65.3793 23.8086 67.6627 23.8086C69.1687 23.8086 70.4874 24.66 71.2092 25.93H73.9506C73.0414 23.2765 70.5707 21.375 67.6627 21.375C63.9843 21.375 61 24.4258 61 28.1862C61 31.9465 63.9843 34.9974 67.6627 34.9974C70.6609 34.9974 73.2011 32.9682 74.0339 30.1799H71.348C70.6679 31.5989 69.2728 32.5709 67.6627 32.5709Z" fill="#F2F4F8"/>
<path d="M79.5073 21.6562H76.877V34.7323H79.5073V21.6562Z" fill="#F2F4F8"/>
<path d="M86.3726 24.1021H89.8288V21.6543H86.3726V17H83.7422V21.6543V24.1021V32.2755L86.3726 34.7304H91.0503V32.2755H86.3726V24.1021Z" fill="#F2F4F8"/>
<path d="M154.37 17V22.6263C153.287 21.8388 151.947 21.3776 150.483 21.3776C146.805 21.3776 143.82 24.4285 143.82 28.1888C143.82 31.9492 146.805 35 150.483 35C151.954 35 153.287 34.5388 154.37 33.7513V34.7233H157V17H154.37ZM150.483 32.5735C148.193 32.5735 146.34 30.6153 146.34 28.1888C146.34 25.7623 148.193 23.8041 150.483 23.8041C152.864 23.8041 154.626 25.7623 154.626 28.1888C154.626 30.6153 152.864 32.5735 150.483 32.5735Z" fill="#F2F4F8"/>
<path d="M111.306 23.8983V21.6562H100.361V24.104H107.967L100.014 32.5258V34.7323H111.653V32.2774H103.352L111.306 23.8983Z" fill="#F2F4F8"/>
<path d="M131.996 21.6562H129.365V24.104V34.7323H131.996V24.104H137.735V34.7323H140.366V24.104L137.735 21.6562H131.996Z" fill="#F2F4F8"/>
<path d="M79.5073 17H76.877V19.8664H79.5073V17Z" fill="#F2F4F8"/>
<path d="M96.7358 21.6562H94.1055V34.7323H96.7358V21.6562Z" fill="#F2F4F8"/>
<path d="M96.7358 17H94.1055V19.8664H96.7358V17Z" fill="#F2F4F8"/>
<path d="M46.1042 24.1523H42.6387V27.5401H46.1042V24.1523Z" fill="#F2F4F8"/>
<path d="M41.0866 24.1523H37.665V27.5401H41.0866V24.1523Z" fill="#F2F4F8"/>
<path d="M50.9961 18.2891V33.074L47.6626 31.9747V27.5437V24.1559V19.3996L50.9961 18.2891Z" fill="#F2F4F8"/>
<path d="M34.7933 52.0005H16.2114L17.5976 48.6128V48.6016L33.4071 48.6128L34.7933 52.0005Z" fill="#F2F4F8"/>
<path d="M25.6847 47.0174H19.3037L23.1983 43.3828H29.6233L25.6847 47.0174Z" fill="#F2F4F8"/>
<path d="M24.9148 41.7921H30.6467L29.2495 38.4043H21.7353L20.3711 41.7921H24.9148ZM29.7335 41.7921H30.2616H29.0624H29.7335Z" fill="#F2F4F8"/>
<path d="M4.9541 18.5527L8.36462 19.9998V23.8251L4.9541 22.4565V18.5527Z" fill="#F2F4F8"/>
<path d="M13.338 22.0955V25.8086L9.92749 24.4513V20.6484L13.338 22.0955Z" fill="#F2F4F8"/>
<path d="M9.92749 27.5648L13.338 26.1289V29.8532L9.92749 31.2891V27.5648Z" fill="#F2F4F8"/>
<path d="M3.38852 17.8906V31.3519V34.0554L0 35.4913V34.1564V20.1903L3.38852 17.9018V17.8906Z" fill="#F2F4F8"/>
<path d="M4.9541 29.6697L8.36462 28.2227V31.9469L4.9541 33.394V29.6697Z" fill="#F2F4F8"/>
<path d="M12.3326 44.5346L15.4241 47.6868L14.0489 51.0858L10.8144 47.7877L0.912842 37.6918L4.25736 36.3008L12.3326 44.5346Z" fill="#F2F4F8"/>
<path d="M16.5586 41.4529L17.5598 42.4625L16.0635 46.1194L14.0282 44.0329L13.0381 43.0346L10.4197 40.3535L12.9501 37.7734L14.6773 39.5346L16.5586 41.4529Z" fill="#F2F4F8"/>
<path d="M18.2052 40.8684L15.3888 38.0191L10.9221 33.4647L14.2336 32.0625L19.5585 37.4919L18.2052 40.8684Z" fill="#F2F4F8"/>
<path d="M35.3617 13.5527L32.9424 16.0195L35.2917 18.415L37.7111 15.9481L35.3617 13.5527Z" fill="#F2F4F8"/>
<path d="M38.8706 9.98465L36.4746 12.4277L38.824 14.8232L41.22 12.3801L38.8706 9.98465Z" fill="#F2F4F8"/>
<path d="M42.372 6.40825L39.9604 8.86719L42.3098 11.2627L44.7214 8.80373L42.372 6.40825Z" fill="#F2F4F8"/>
<path d="M38.8357 37.1553L36.4863 39.5508L38.8823 41.9939L41.2317 39.5984L38.8357 37.1553Z" fill="#F2F4F8"/>
<path d="M35.3034 33.5459L32.9541 35.9414L35.3735 38.4083L37.7228 36.0128L35.3034 33.5459Z" fill="#F2F4F8"/>
<path d="M42.3215 40.6924L39.9722 43.0879L42.3837 45.5468L44.7331 43.1513L42.3215 40.6924Z" fill="#F2F4F8"/>
<path d="M17.5965 9.49783L15.3191 11.8087L13.7129 8.31997L16.1223 5.86328L17.5965 9.49783Z" fill="#F2F4F8"/>
<path d="M19.6159 14.4742L18.4277 15.6969L17.5256 16.6168L14.5221 19.668L14.2361 19.9597L10.9246 18.5575L16.0293 13.3524L16.0843 13.2963L18.2407 11.0977L19.6159 14.4742Z" fill="#F2F4F8"/>
<path d="M13.2675 16.1641L11.4192 18.0486L13.2675 16.1641Z" fill="#F2F4F8"/>
<path d="M15.4847 4.27452L4.24098 15.7391L0.907471 14.3256L3.26183 11.9362L11.5241 3.51172L15.4737 4.26331L15.4847 4.27452Z" fill="#F2F4F8"/>
<path d="M11.718 15.4993L9.36362 17.8999L5.79907 16.3967L8.15343 13.9961L11.718 15.4993Z" fill="#F2F4F8"/>
<path d="M13.2675 16.1641L11.4192 18.0486L13.2675 16.1641Z" fill="#F2F4F8"/>
<path d="M13.2675 16.1641L11.4192 18.0486L13.2675 16.1641Z" fill="#F2F4F8"/>
<path d="M23.8171 10.2129H30.6931L29.3179 13.6119H21.7378L20.3516 10.2129H23.8171Z" fill="#F2F4F8"/>
<path d="M34.8405 0L33.4543 3.39897H17.5788L16.2036 0H20.0762V0.0112177L34.8405 0Z" fill="#F2F4F8"/>
<path d="M23.2231 8.60525H19.7025L18.2173 4.9707H21.8918L23.2231 8.60525Z" fill="#F2F4F8"/>
</svg>
