<svg width="92" height="92" viewBox="0 0 92 92" fill="none" xmlns="http://www.w3.org/2000/svg">
<g filter="url(#filter0_f_4573_31729)">
<path d="M60.1732 10H31.8268C31.3541 10 30.8992 10.1873 30.5647 10.5217L10.5218 30.5663C10.1873 30.9008 10 31.3556 10 31.8283V60.1739C10 60.6466 10.1873 61.1014 10.5218 61.4359L30.5647 81.4782C30.8992 81.8127 31.3541 82 31.8268 82H60.1732C60.6459 82 61.1008 81.8127 61.4353 81.4782L81.4782 61.4359C81.8127 61.1014 82 60.6466 82 60.1739V31.8283C82 31.3556 81.8127 30.9008 81.4782 30.5663L61.4353 10.5217C61.1008 10.1873 60.6459 10 60.1732 10Z" fill="#0B1018"/>
</g>
<path d="M60.1732 10H31.8268C31.3541 10 30.8992 10.1873 30.5647 10.5217L10.5218 30.5663C10.1873 30.9008 10 31.3556 10 31.8283V60.1739C10 60.6466 10.1873 61.1014 10.5218 61.4359L30.5647 81.4782C30.8992 81.8127 31.3541 82 31.8268 82H60.1732C60.6459 82 61.1008 81.8127 61.4353 81.4782L81.4782 61.4359C81.8127 61.1014 82 60.6466 82 60.1739V31.8283C82 31.3556 81.8127 30.9008 81.4782 30.5663L61.4353 10.5217C61.1008 10.1873 60.6459 10 60.1732 10Z" fill="#0B1018"/>
<path d="M63.9344 44.4365H61.002V47.3032H63.9344V44.4365Z" fill="white"/>
<path d="M59.6892 44.4365H56.7939V47.3032H59.6892V44.4365Z" fill="white"/>
<path d="M68.0747 39.4756V51.9864L65.2539 51.0562V47.3067V44.4401V40.4153L68.0747 39.4756Z" fill="white"/>
<path d="M54.3634 67.9997H38.6396L39.8126 65.133V65.1235L53.1904 65.133L54.3634 67.9997Z" fill="white"/>
<path d="M46.6554 63.784H41.2559L44.5514 60.7085H49.9881L46.6554 63.784Z" fill="white"/>
<path d="M46.004 59.3623H50.8542L49.6719 56.4956H43.3136L42.1592 59.3623H46.004ZM50.0816 59.3623H50.5284H49.5137H50.0816Z" fill="white"/>
<path d="M29.1143 39.6982L32.0002 40.9227V44.1596L29.1143 43.0016V39.6982Z" fill="white"/>
<path d="M36.2082 42.6962V45.8381L33.3223 44.6896V41.4717L36.2082 42.6962Z" fill="white"/>
<path d="M33.3223 47.3239L36.2082 46.1089V49.2603L33.3223 50.4753V47.3239Z" fill="white"/>
<path d="M27.7892 39.1387V50.5294V52.8171L24.9219 54.0321V52.9025V41.0846L27.7892 39.1482V39.1387Z" fill="white"/>
<path d="M29.1143 49.1059L32.0002 47.8813V51.0328L29.1143 52.2573V49.1059Z" fill="white"/>
<path d="M35.3576 61.6841L37.9735 64.3515L36.8099 67.2277L34.0729 64.4369L25.6943 55.8938L28.5244 54.7168L35.3576 61.6841Z" fill="white"/>
<path d="M38.9339 59.0778L39.7811 59.9321L38.515 63.0266L36.7928 61.2611L35.9549 60.4162L33.7393 58.1476L35.8804 55.9644L37.342 57.4546L38.9339 59.0778Z" fill="white"/>
<path d="M40.3269 58.5823L37.9437 56.1713L34.1641 52.3174L36.9662 51.1309L41.472 55.7251L40.3269 58.5823Z" fill="white"/>
<path d="M54.8451 35.4673L52.7979 37.5547L54.7858 39.5817L56.8331 37.4943L54.8451 35.4673Z" fill="white"/>
<path d="M57.8146 32.4473L55.7871 34.5146L57.7751 36.5417L59.8026 34.4744L57.8146 32.4473Z" fill="white"/>
<path d="M60.777 29.4207L58.7363 31.5015L60.7243 33.5285L62.765 31.4478L60.777 29.4207Z" fill="white"/>
<path d="M57.7849 55.4393L55.7969 57.4663L57.8244 59.5336L59.8123 57.5066L57.7849 55.4393Z" fill="white"/>
<path d="M54.7956 52.3856L52.8076 54.4126L54.8548 56.5L56.8428 54.473L54.7956 52.3856Z" fill="white"/>
<path d="M60.7341 58.432L58.7461 60.459L60.7867 62.5397L62.7747 60.5127L60.7341 58.432Z" fill="white"/>
<path d="M39.8116 32.0355L37.8846 33.9909L36.5254 31.0388L38.5642 28.96L39.8116 32.0355Z" fill="white"/>
<path d="M41.5205 36.2459L40.5151 37.2805L39.7517 38.0589L37.2102 40.6408L36.9682 40.8876L34.166 39.7011L38.4856 35.2966L38.5322 35.2492L40.3568 33.3887L41.5205 36.2459Z" fill="white"/>
<path d="M36.149 37.6758L34.585 39.2705L36.149 37.6758Z" fill="white"/>
<path d="M38.0245 27.6167L28.5102 37.3178L25.6895 36.1218L27.6817 34.0999L34.6731 26.9712L38.0152 27.6072L38.0245 27.6167Z" fill="white"/>
<path d="M34.8376 37.1143L32.8454 39.1456L29.8291 37.8736L31.8213 35.8423L34.8376 37.1143Z" fill="white"/>
<path d="M36.149 37.6758L34.585 39.2705L36.149 37.6758Z" fill="white"/>
<path d="M36.149 37.6758L34.585 39.2705L36.149 37.6758Z" fill="white"/>
<path d="M45.076 32.6406H50.8945L49.7308 35.5168H43.3165L42.1436 32.6406H45.076Z" fill="white"/>
<path d="M54.404 23.999L53.2311 26.8752H39.7975L38.6338 23.999H41.9107V24.0085L54.404 23.999Z" fill="white"/>
<path d="M44.5737 31.2806H41.5947L40.3379 28.2051H43.4473L44.5737 31.2806Z" fill="white"/>
<defs>
<filter id="filter0_f_4573_31729" x="0" y="0" width="92" height="92" filterUnits="userSpaceOnUse" color-interpolation-filters="sRGB">
<feFlood flood-opacity="0" result="BackgroundImageFix"/>
<feBlend mode="normal" in="SourceGraphic" in2="BackgroundImageFix" result="shape"/>
<feGaussianBlur stdDeviation="5" result="effect1_foregroundBlur_4573_31729"/>
</filter>
</defs>
</svg>
