<svg fill="#abc3cf" viewBox="0 0 43 49" xmlns="http://www.w3.org/2000/svg">
  <path fill-rule="evenodd" d="m36.095 39.158-2.62 2.62 1.878 5.006 4.741-4.742-4-2.884ZM17.81 48.673h13.053l-1.825-4.867h-9.403l-1.826 4.867ZM0 30.848l4.867-1.826v-9.386L0 17.811v5.122l4.867 1.405L0 25.743v5.105ZM1.89 13.32l11.43-11.43 1.877 5.006-8.302 8.301-5.006-1.877ZM30.863 0l-1.826 4.867h-9.404L17.81 0h13.055ZM15.197 41.777l-1.877 5.006-5.867-5.867 1.721-5.162 6.023 6.023Z" clip-rule="evenodd"/>
  <path d="m38.723 5.182 3.441 3.441-3.441 3.442-3.442-3.442 3.442-3.441Z"/>
</svg>
