<svg width="20" height="20" viewBox="0 0 20 20" fill="none" xmlns="http://www.w3.org/2000/svg">
  <path d="M20 10C20 15.5228 15.5228 20 10 20C4.47715 20 0 15.5228 0 10C0 4.47715 4.47715 0 10 0C15.5228 0 20 4.47715 20 10Z" fill="#CA7676"/>
  <path d="M8.51187 4H11.4879L10.9919 11.312H9.00787L8.51187 4ZM9.99987 15.328C9.56253 15.328 9.19453 15.1893 8.89587 14.912C8.60787 14.624 8.46387 14.2773 8.46387 13.872C8.46387 13.4667 8.60787 13.1307 8.89587 12.864C9.18387 12.5867 9.55187 12.448 9.99987 12.448C10.4479 12.448 10.8159 12.5867 11.1039 12.864C11.3919 13.1307 11.5359 13.4667 11.5359 13.872C11.5359 14.2773 11.3865 14.624 11.0879 14.912C10.7999 15.1893 10.4372 15.328 9.99987 15.328Z" fill="white"/>
</svg>
