<svg width="20" height="20" viewBox="0 0 20 20" fill="none" xmlns="http://www.w3.org/2000/svg">
  <path d="M20 10C20 15.5228 15.5228 20 10 20C4.47715 20 0 15.5228 0 10C0 4.47715 4.47715 0 10 0C15.5228 0 20 4.47715 20 10Z" fill="#323E52"/>
  <path fill-rule="evenodd" clip-rule="evenodd" d="M9.74558 11.0195C9.40668 11.3438 8.8572 11.3438 8.51829 11.0195C7.54799 10.091 7.50309 8.57451 8.48731 7.63271C8.50512 7.61567 8.5235 7.59953 8.54241 7.58428L10.7446 5.67121C11.7299 4.7455 13.3025 4.79312 14.2674 5.71644C15.259 6.66523 15.2306 8.26532 14.2674 9.187L14.2566 9.19718L14.1824 9.26583C14.1364 9.3085 14.0727 9.36758 14.0022 9.4332C13.8599 9.5656 13.6941 9.7206 13.5882 9.82192C13.2493 10.1463 12.6999 10.1463 12.3609 9.82204C12.022 9.49777 12.0219 8.97197 12.3608 8.64764C12.4764 8.53704 12.6502 8.37455 12.7922 8.24244C12.8638 8.1758 12.9285 8.11587 12.9752 8.0726L13.0443 8.00857C13.3368 7.72358 13.3412 7.17893 13.0402 6.89084C12.7164 6.58108 12.231 6.59747 11.9554 6.86119C11.9456 6.87064 11.9355 6.87986 11.9251 6.88884L9.69785 8.8237C9.43844 9.08995 9.42856 9.54172 9.74558 9.84508C10.0845 10.1694 10.0845 10.6952 9.74558 11.0195ZM10.255 8.98027C10.5939 8.65597 11.1434 8.65597 11.4823 8.98027C12.4526 9.90876 12.4975 11.4252 11.5133 12.367C11.5012 12.3786 11.4888 12.3898 11.4762 12.4006L9.25591 14.3294C8.27056 15.2551 6.69797 15.2074 5.73305 14.2841C4.74154 13.3353 4.76987 11.7352 5.73305 10.8136L5.74388 10.8034L5.81805 10.7347C5.86412 10.6921 5.92781 10.633 5.99833 10.5674C6.14064 10.435 6.30642 10.28 6.41228 10.1786C6.75115 9.85431 7.30063 9.85426 7.63957 10.1785C7.97851 10.5028 7.97856 11.0286 7.63969 11.3529C7.52413 11.4635 7.35026 11.626 7.20828 11.7581C7.13666 11.8248 7.07205 11.8847 7.02534 11.928L6.95616 11.992C6.66366 12.277 6.65927 12.8216 6.96034 13.1097C7.28405 13.4195 7.76947 13.4031 8.04507 13.1394C8.05494 13.1299 8.06505 13.1207 8.07539 13.1117L10.2979 11.181C10.562 10.9154 10.574 10.4599 10.255 10.1547C9.91612 9.83037 9.91612 9.30457 10.255 8.98027Z" fill="white"/>
</svg>
