<svg width="40" height="40" viewBox="0 0 40 40" fill="none" xmlns="http://www.w3.org/2000/svg">
  <path d="M28.6487 0H11.6216L0 11.9824V28.1057L11.8018 40H28.6487L40 28.1057V11.5419L28.6487 0Z" fill="currentColor"/>
  <path fill-rule="evenodd" clip-rule="evenodd" d="M19.4907 22.04C18.8129 22.6885 17.714 22.6885 17.0362 22.04C15.0957 20.1831 15.0059 17.1503 16.9743 15.2668C17.0062 15.2362 17.039 15.2071 17.0727 15.1795L21.4886 11.3433C23.4592 9.492 26.6042 9.58723 28.534 11.4338C30.5169 13.3313 30.4602 16.5313 28.534 18.3746L28.5123 18.3949L28.364 18.5322C28.2719 18.6176 28.1445 18.7357 28.0034 18.8669C27.7188 19.1317 27.3873 19.4417 27.1756 19.6444C26.4979 20.293 25.399 20.2931 24.7211 19.6446C24.0433 18.9961 24.0432 17.9445 24.7209 17.2959C24.952 17.0747 25.2997 16.7497 25.5836 16.4856C25.7269 16.3523 25.8561 16.2324 25.9495 16.1459L26.0879 16.0178C26.6728 15.4479 26.6816 14.3586 26.0795 13.7825C25.4321 13.163 24.4613 13.1958 23.9102 13.7232C23.8904 13.7421 23.8702 13.7605 23.8495 13.7785L19.3994 17.6443C18.8765 18.1762 18.855 19.083 19.4907 19.6913C20.1685 20.3399 20.1685 21.3914 19.4907 22.04ZM20.5096 17.9611C21.1873 17.3125 22.2862 17.3125 22.964 17.9611C24.9045 19.8179 24.9943 22.8508 23.026 24.7343C22.9927 24.7661 22.9584 24.7964 22.9233 24.8251L18.5114 28.6577C16.5408 30.509 13.3958 30.4138 11.466 28.5672C9.4831 26.6698 9.53975 23.4697 11.466 21.6265L11.4877 21.6061L11.636 21.4688C11.7281 21.3835 11.8555 21.2653 11.9966 21.1341C12.2812 20.8693 12.6127 20.5593 12.8244 20.3567C13.5021 19.7081 14.601 19.708 15.2789 20.3565C15.9567 21.005 15.9568 22.0565 15.2791 22.7051C15.048 22.9263 14.7003 23.2513 14.4164 23.5155C14.2731 23.6488 14.1439 23.7686 14.0505 23.8552L13.9121 23.9832C13.3272 24.5532 13.3184 25.6424 13.9205 26.2186C14.5679 26.8381 15.5387 26.8053 16.0898 26.2779C16.1096 26.259 16.1298 26.2405 16.1505 26.2226L20.6022 22.3552C21.1237 21.8232 21.1447 20.9175 20.5096 20.3097C19.8318 19.6612 19.8318 18.6096 20.5096 17.9611Z" fill="#323E52"/>
</svg>
