<svg viewBox="0 0 116 40" fill="currentColor" xmlns="http://www.w3.org/2000/svg">
  <path d="M52.792 21.898h1.997a4.931 4.931 0 0 1-4.701 3.44 4.923 4.923 0 0 1-4.938-4.929 4.937 4.937 0 0 1 9.639-1.497h-1.997c-.517-.999-1.534-1.68-2.704-1.68-1.697 0-3.068 1.426-3.068 3.177 0 1.752 1.37 3.177 3.068 3.177 1.17 0 2.187-.68 2.704-1.688Z"/>
  <path d="M52.792 21.898h1.997a4.931 4.931 0 0 1-4.701 3.44 4.923 4.923 0 0 1-4.938-4.929 4.937 4.937 0 0 1 9.639-1.497h-1.997c-.517-.999-1.534-1.68-2.704-1.68-1.697 0-3.068 1.426-3.068 3.177 0 1.752 1.37 3.177 3.068 3.177 1.17 0 2.187-.68 2.704-1.688ZM33.054 19.081h2.106a.25.25 0 0 1 .253.254v2.13a.25.25 0 0 1-.253.254h-2.106a.25.25 0 0 1-.253-.253v-2.131a.25.25 0 0 1 .253-.254Z"/>
  <path d="M33.054 19.081h2.106a.25.25 0 0 1 .253.254v2.13a.25.25 0 0 1-.253.254h-2.106a.25.25 0 0 1-.253-.253v-2.131a.25.25 0 0 1 .253-.254ZM29.216 19.081h2.13a.25.25 0 0 1 .254.254v2.13a.25.25 0 0 1-.254.254h-2.13a.25.25 0 0 1-.254-.253v-2.131a.25.25 0 0 1 .254-.254Z"/>
  <path d="M29.216 19.081h2.13a.25.25 0 0 1 .254.254v2.13a.25.25 0 0 1-.254.254h-2.13a.25.25 0 0 1-.254-.253v-2.131a.25.25 0 0 1 .254-.254ZM36.757 16.03l2.105-.872a.25.25 0 0 1 .347.237v10.02c0 .177-.186.303-.347.236l-2.114-.88a.268.268 0 0 1-.16-.236v-8.277a.256.256 0 0 1 .169-.229Z"/>
  <path d="m36.757 16.03 2.105-.872a.25.25 0 0 1 .347.237v10.02c0 .177-.186.303-.347.236l-2.114-.88a.268.268 0 0 1-.16-.236v-8.277a.256.256 0 0 1 .169-.229ZM13.543 37.548l-.88 2.106A.25.25 0 0 0 12.9 40h13.41c.178 0 .304-.186.237-.346l-.871-2.106a.268.268 0 0 0-.237-.16H13.771a.247.247 0 0 0-.228.16Z"/>
  <path d="m13.543 37.548-.88 2.106A.25.25 0 0 0 12.9 40h13.41c.178 0 .304-.186.237-.346l-.871-2.106a.268.268 0 0 0-.237-.16H13.771a.247.247 0 0 0-.228.16ZM19.8 36.145l2.325-2.105c.169-.153.059-.44-.17-.44H17.78a.251.251 0 0 0-.169.068l-2.308 2.105c-.17.152-.06.44.169.44h4.151a.273.273 0 0 0 .178-.068Z"/>
  <path d="m19.8 36.145 2.325-2.105c.169-.153.059-.44-.17-.44H17.78a.251.251 0 0 0-.169.068l-2.308 2.105c-.17.152-.06.44.169.44h4.151a.273.273 0 0 0 .178-.068ZM23.384 32.036l-.88-2.13a.268.268 0 0 0-.236-.161h-5.335a.255.255 0 0 0-.237.16l-.879 2.13a.25.25 0 0 0 .237.348h7.094c.186.008.304-.178.236-.347Z"/>
  <path d="m23.384 32.036-.88-2.13a.268.268 0 0 0-.236-.161h-5.335a.255.255 0 0 0-.237.16l-.879 2.13a.25.25 0 0 0 .237.348h7.094c.186.008.304-.178.236-.347ZM6.258 15.912l-2.097-.87a.25.25 0 0 0-.347.236v2.266c0 .102.06.195.153.237l2.096.87c.17.068.356-.05.356-.236v-2.266a.25.25 0 0 0-.161-.237Z"/>
  <path d="m6.258 15.912-2.097-.87a.25.25 0 0 0-.347.236v2.266c0 .102.06.195.153.237l2.096.87c.17.068.356-.05.356-.236v-2.266a.25.25 0 0 0-.161-.237ZM10.257 17.739v2.249c0 .177-.186.304-.347.236l-2.13-.87a.268.268 0 0 1-.16-.237V16.85c0-.178.185-.304.346-.237l2.13.88c.102.05.161.143.161.245Z"/>
  <path d="M10.257 17.739v2.249c0 .177-.186.304-.347.236l-2.13-.87a.268.268 0 0 1-.16-.237V16.85c0-.178.185-.304.346-.237l2.13.88c.102.05.161.143.161.245ZM7.78 21.45l2.13-.87a.25.25 0 0 1 .347.236v2.25c0 .1-.06.194-.16.236l-2.123.88a.25.25 0 0 1-.346-.237v-2.258c-.009-.101.059-.194.152-.237Z"/>
  <path d="m7.78 21.45 2.13-.87a.25.25 0 0 1 .347.236v2.25c0 .1-.06.194-.16.236l-2.123.88a.25.25 0 0 1-.346-.237v-2.258c-.009-.101.059-.194.152-.237ZM2.225 14.627a.25.25 0 0 1 .38.22v11.389c0 .101-.059.194-.16.236l-2.089.863a.25.25 0 0 1-.346-.237V16.09c0-.093.05-.17.127-.22l2.088-1.243Z"/>
  <path d="M2.225 14.627a.25.25 0 0 1 .38.22v11.389c0 .101-.059.194-.16.236l-2.089.863a.25.25 0 0 1-.346-.237V16.09c0-.093.05-.17.127-.22l2.088-1.243ZM6.063 22.16l-2.097.871a.268.268 0 0 0-.16.237v2.258a.26.26 0 0 0 .355.236l2.097-.87a.26.26 0 0 0 .152-.237v-2.258c.008-.186-.178-.304-.347-.236Z"/>
  <path d="m6.063 22.16-2.097.871a.268.268 0 0 0-.16.237v2.258a.26.26 0 0 0 .355.236l2.097-.87a.26.26 0 0 0 .152-.237v-2.258c.008-.186-.178-.304-.347-.236ZM11.771 36.813l-.87 2.105a.254.254 0 0 1-.415.085l-9.478-9.478a.254.254 0 0 1 .085-.414l2.114-.871a.25.25 0 0 1 .279.059l8.243 8.243a.26.26 0 0 1 .042.271Z"/>
  <path d="m11.771 36.813-.87 2.105a.254.254 0 0 1-.415.085l-9.478-9.478a.254.254 0 0 1 .085-.414l2.114-.871a.25.25 0 0 1 .279.059l8.243 8.243a.26.26 0 0 1 .042.271ZM9.666 29.474l-1.488 1.488a.245.245 0 0 0 0 .355l3.88 3.881a.254.254 0 0 0 .415-.084l.879-2.106a.262.262 0 0 0-.05-.279l-3.264-3.263a.293.293 0 0 0-.372.008Z"/>
  <path d="m9.666 29.474-1.488 1.488a.245.245 0 0 0 0 .355l3.88 3.881a.254.254 0 0 0 .415-.084l.879-2.106a.262.262 0 0 0-.05-.279l-3.264-3.263a.293.293 0 0 0-.372.008ZM13.64 31.385l-5.014-5.014a.254.254 0 0 1 .085-.414l2.13-.88a.25.25 0 0 1 .28.06l3.762 3.77a.262.262 0 0 1 .06.28l-.88 2.122a.266.266 0 0 1-.423.076Z"/>
  <path d="m13.64 31.385-5.014-5.014a.254.254 0 0 1 .085-.414l2.13-.88a.25.25 0 0 1 .28.06l3.762 3.77a.262.262 0 0 1 .06.28l-.88 2.122a.266.266 0 0 1-.423.076ZM27.326 11.176l1.505 1.505a.245.245 0 0 1 0 .355l-1.496 1.505a.245.245 0 0 1-.355 0l-1.506-1.505a.245.245 0 0 1 0-.355l1.497-1.497a.239.239 0 0 1 .355-.008Z"/>
  <path d="m27.326 11.176 1.505 1.505a.245.245 0 0 1 0 .355l-1.496 1.505a.245.245 0 0 1-.355 0l-1.506-1.505a.245.245 0 0 1 0-.355l1.497-1.497a.239.239 0 0 1 .355-.008ZM30.023 8.47l1.505 1.505a.245.245 0 0 1 0 .355L30.04 11.82a.245.245 0 0 1-.355 0l-1.505-1.506a.245.245 0 0 1 0-.355l1.488-1.488a.26.26 0 0 1 .355 0Z"/>
  <path d="m30.023 8.47 1.505 1.505a.245.245 0 0 1 0 .355L30.04 11.82a.245.245 0 0 1-.355 0l-1.505-1.506a.245.245 0 0 1 0-.355l1.488-1.488a.26.26 0 0 1 .355 0ZM34.225 7.65l-1.488 1.488a.245.245 0 0 1-.355 0L30.86 7.633a.245.245 0 0 1 0-.355l1.488-1.488a.245.245 0 0 1 .355 0l1.505 1.505c.11.093.11.254.017.355Z"/>
  <path d="m34.225 7.65-1.488 1.488a.245.245 0 0 1-.355 0L30.86 7.633a.245.245 0 0 1 0-.355l1.488-1.488a.245.245 0 0 1 .355 0l1.505 1.505c.11.093.11.254.017.355ZM31.528 30.826l-1.505 1.505a.245.245 0 0 1-.355 0l-1.488-1.488a.245.245 0 0 1 0-.355l1.505-1.505a.245.245 0 0 1 .355 0l1.488 1.488a.245.245 0 0 1 0 .355Z"/>
  <path d="m31.528 30.826-1.505 1.505a.245.245 0 0 1-.355 0l-1.488-1.488a.245.245 0 0 1 0-.355l1.505-1.505a.245.245 0 0 1 .355 0l1.488 1.488a.245.245 0 0 1 0 .355ZM28.831 28.12l-1.505 1.505a.245.245 0 0 1-.355 0l-1.497-1.496a.245.245 0 0 1 0-.356l1.506-1.505a.245.245 0 0 1 .355 0l1.496 1.497a.245.245 0 0 1 0 .355Z"/>
  <path d="m28.831 28.12-1.505 1.505a.245.245 0 0 1-.355 0l-1.497-1.496a.245.245 0 0 1 0-.356l1.506-1.505a.245.245 0 0 1 .355 0l1.496 1.497a.245.245 0 0 1 0 .355ZM34.217 33.514l-1.505 1.505a.245.245 0 0 1-.355 0l-1.497-1.488a.245.245 0 0 1 0-.355l1.505-1.505a.245.245 0 0 1 .355 0l1.488 1.488c.11.093.11.254.009.355Z"/>
  <path d="m34.217 33.514-1.505 1.505a.245.245 0 0 1-.355 0l-1.497-1.488a.245.245 0 0 1 0-.355l1.505-1.505a.245.245 0 0 1 .355 0l1.488 1.488c.11.093.11.254.009.355ZM10.4 7.474l.87 2.105c.068.17.288.212.414.085l1.607-1.607a.262.262 0 0 0 .059-.279l-.87-2.105a.254.254 0 0 0-.415-.084l-1.606 1.606a.25.25 0 0 0-.06.28Z"/>
  <path d="m10.4 7.474.87 2.105c.068.17.288.212.414.085l1.607-1.607a.262.262 0 0 0 .059-.279l-.87-2.105a.254.254 0 0 0-.415-.084l-1.606 1.606a.25.25 0 0 0-.06.28ZM14.88 11.904l-3.77 3.771a.244.244 0 0 1-.28.051l-2.122-.88a.254.254 0 0 1-.084-.414l5.013-5.013a.254.254 0 0 1 .415.084l.879 2.13a.245.245 0 0 1-.05.271Z"/>
  <path d="m14.88 11.904-3.77 3.771a.244.244 0 0 1-.28.051l-2.122-.88a.254.254 0 0 1-.084-.414l5.013-5.013a.254.254 0 0 1 .415.084l.879 2.13a.245.245 0 0 1-.05.271ZM11.524 4.464l-8.049 8.05a.244.244 0 0 1-.279.05l-2.105-.87a.254.254 0 0 1-.085-.415l7.787-7.787a.277.277 0 0 1 .245-.068l2.376.609c.178.05.245.287.11.431Z"/>
  <path d="m11.524 4.464-8.049 8.05a.244.244 0 0 1-.279.05l-2.105-.87a.254.254 0 0 1-.085-.415l7.787-7.787a.277.277 0 0 1 .245-.068l2.376.609c.178.05.245.287.11.431ZM4.887 13.266l2.105.87a.25.25 0 0 0 .28-.059l1.597-1.598a.254.254 0 0 0-.085-.414l-2.105-.87a.25.25 0 0 0-.279.058l-1.598 1.598a.254.254 0 0 0 .085.415Z"/>
  <path d="m4.887 13.266 2.105.87a.25.25 0 0 0 .28-.059l1.597-1.598a.254.254 0 0 0-.085-.414l-2.105-.87a.25.25 0 0 0-.279.058l-1.598 1.598a.254.254 0 0 0 .085.415ZM23.384 8.769l-.88 2.13a.268.268 0 0 1-.236.16h-5.326a.26.26 0 0 1-.237-.151l-.888-2.13a.256.256 0 0 1 .237-.356h7.094a.25.25 0 0 1 .236.347Z"/>
  <path d="m23.384 8.769-.88 2.13a.268.268 0 0 1-.236.16h-5.326a.26.26 0 0 1-.237-.151l-.888-2.13a.256.256 0 0 1 .237-.356h7.094a.25.25 0 0 1 .236.347ZM26.538 1.15l-.87 2.106a.268.268 0 0 1-.237.16H13.77a.255.255 0 0 1-.236-.16l-.871-2.105A.25.25 0 0 1 12.9.804h13.402a.245.245 0 0 1 .236.347Z"/>
  <path d="m26.538 1.15-.87 2.106a.268.268 0 0 1-.237.16H13.77a.255.255 0 0 1-.236-.16l-.871-2.105A.25.25 0 0 1 12.9.804h13.402a.245.245 0 0 1 .236.347ZM17.61 7.213h-2.258a.255.255 0 0 1-.236-.16l-.871-2.106a.25.25 0 0 1 .237-.347h2.257c.101 0 .194.06.237.161l.87 2.105c.068.161-.059.347-.236.347Z"/>
  <path d="M17.61 7.213h-2.258a.255.255 0 0 1-.236-.16l-.871-2.106a.25.25 0 0 1 .237-.347h2.257c.101 0 .194.06.237.161l.87 2.105c.068.161-.059.347-.236.347ZM89.152 21.37h4.304c.045-.262.063-.524.063-.804a4.908 4.908 0 1 0-9.818 0 4.908 4.908 0 0 0 9.286 2.22h-2.21a2.986 2.986 0 0 1-2.167.939c-1.416 0-2.608-.993-2.95-2.347l3.492-.009Zm-3.502-1.553c.325-1.38 1.525-2.4 2.96-2.4s2.635 1.02 2.96 2.4h-5.92Z"/>
  <path d="M89.152 21.37h4.304c.045-.262.063-.524.063-.804a4.908 4.908 0 1 0-9.818 0 4.908 4.908 0 0 0 9.286 2.22h-2.21a2.986 2.986 0 0 1-2.167.939c-1.416 0-2.608-.993-2.95-2.347l3.492-.009Zm-3.502-1.553c.325-1.38 1.525-2.4 2.96-2.4s2.635 1.02 2.96 2.4h-5.92ZM58.775 15.865h-1.94v9.42h1.94v-9.42Z"/>
  <path d="M58.775 15.865h-1.94v9.42h1.94v-9.42ZM67.168 23.607v1.679h-3.899a1.76 1.76 0 0 1-1.76-1.76v-11h1.932v3.339h3.6v1.678h-3.6v6.064h3.727Z"/>
  <path d="M67.168 23.607v1.679h-3.899a1.76 1.76 0 0 1-1.76-1.76v-11h1.932v3.339h3.6v1.678h-3.6v6.064h3.727ZM113.976 12.517v4.34c-.596-.667-1.471-1.19-2.752-1.19a4.915 4.915 0 0 0-4.91 4.908 4.915 4.915 0 0 0 4.91 4.91c1.272 0 2.147-.551 2.752-1.237v1.038h1.94v-12.77h-1.94Zm-2.752 11.217c-1.688 0-3.051-1.417-3.051-3.159 0-1.741 1.363-3.158 3.051-3.158 1.75 0 3.05 1.417 3.05 3.158 0 1.742-1.291 3.159-3.05 3.159Z"/>
  <path d="M113.976 12.517v4.34c-.596-.667-1.471-1.19-2.752-1.19a4.915 4.915 0 0 0-4.91 4.908 4.915 4.915 0 0 0 4.91 4.91c1.272 0 2.147-.551 2.752-1.237v1.038h1.94v-12.77h-1.94Zm-2.752 11.217c-1.688 0-3.051-1.417-3.051-3.159 0-1.741 1.363-3.158 3.051-3.158 1.75 0 3.05 1.417 3.05 3.158 0 1.742-1.291 3.159-3.05 3.159ZM82.21 23.517v1.769h-8.572v-1.679l5.811-5.974H73.9v-1.768h8.05v1.66l-5.803 5.992h6.065Z"/>
  <path d="M82.21 23.517v1.769h-8.572v-1.679l5.811-5.974H73.9v-1.768h8.05v1.66l-5.803 5.992h6.065ZM92.327 21.37H89.15v.008h3.177v-.009Z"/>
  <path d="M92.327 21.37H89.15v.008h3.177v-.009ZM58.775 12.517h-1.94v2.066h1.94v-2.066Z"/>
  <path d="M58.775 12.517h-1.94v2.066h1.94v-2.066ZM71.228 15.865h-1.94v9.42h1.94v-9.42Z"/>
  <path d="M71.228 15.865h-1.94v9.42h1.94v-9.42ZM71.228 12.517h-1.94v2.066h1.94v-2.066Z"/>
  <path d="M71.228 12.517h-1.94v2.066h1.94v-2.066ZM104.446 19.79v5.496h-1.94v-5.487c0-1.543-.93-2.166-2.085-2.166h-3.023v7.653h-1.94v-9.421h4.963c2.031 0 4.025 1.11 4.025 3.925Z"/>
  <path d="M104.446 19.79v5.496h-1.94v-5.487c0-1.543-.93-2.166-2.085-2.166h-3.023v7.653h-1.94v-9.421h4.963c2.031 0 4.025 1.11 4.025 3.925ZM52.748 22.03h1.984a4.902 4.902 0 0 1-4.673 3.419 4.894 4.894 0 0 1-4.909-4.9 4.908 4.908 0 0 1 9.582-1.488h-1.984c-.515-.993-1.525-1.67-2.69-1.67-1.687 0-3.049 1.417-3.049 3.159 0 1.741 1.362 3.158 3.05 3.158 1.164 0 2.174-.677 2.689-1.679Z"/>
  <path d="M52.748 22.03h1.984a4.902 4.902 0 0 1-4.673 3.419 4.894 4.894 0 0 1-4.909-4.9 4.908 4.908 0 0 1 9.582-1.488h-1.984c-.515-.993-1.525-1.67-2.69-1.67-1.687 0-3.049 1.417-3.049 3.159 0 1.741 1.362 3.158 3.05 3.158 1.164 0 2.174-.677 2.689-1.679Z"/>
</svg>
