<svg viewBox="0 0 152 152" xmlns="http://www.w3.org/2000/svg">
  <g fill="currentColor" opacity=".9">
    <path d="M137.326 70.328h-10.264v9.863h10.264v-9.863ZM122.469 70.328h-10.133v9.863h10.133v-9.863ZM151.817 53.244V96.29l-9.872-3.2V56.476l9.872-3.233ZM103.811 151.4h-55.03l4.105-9.863v-.033l46.82.033 4.105 9.863ZM76.835 136.9H57.938l11.533-10.582H88.5L76.835 136.9ZM74.558 121.678h16.975l-4.138-9.864H65.142l-4.04 9.864h13.456Zm14.27 0h1.564-3.551 1.987ZM15.453 54.02l10.1 4.213V69.37l-10.1-3.985V54.02ZM40.296 64.338v10.81l-10.1-3.951V60.125l10.1 4.213ZM30.195 80.247l10.1-4.18V86.91l-10.1 4.18V80.247ZM10.824 52.094v47.062L.79 103.338V58.789l10.035-6.663v-.032ZM15.453 86.383l10.1-4.213v10.843l-10.1 4.213V86.383ZM37.335 129.677l9.155 9.178-4.072 9.896-9.58-9.602-29.322-29.394 9.904-4.05 23.915 23.972ZM49.844 120.699l2.965 2.939-4.43 10.647-6.028-6.074-2.933-2.907-7.754-7.806 7.494-7.512 5.115 5.128 5.571 5.585ZM54.725 118.997l-8.34-8.295-13.229-13.26 9.807-4.083 15.77 15.808-4.008 9.83ZM105.524 39.46l-7.165 7.183 6.958 6.974 7.165-7.182-6.958-6.975ZM115.924 29.06l-7.096 7.114 6.958 6.974 7.096-7.113-6.958-6.974ZM126.29 18.642l-7.142 7.159 6.958 6.974 7.142-7.159-6.958-6.974ZM115.801 108.153l-6.957 6.974 7.096 7.113 6.957-6.974-7.096-7.113ZM105.333 97.645l-6.958 6.974 7.165 7.182 6.957-6.974-7.164-7.182ZM126.122 118.471l-6.958 6.974 7.142 7.159 6.958-6.974-7.142-7.159ZM52.907 27.666l-6.744 6.728-4.757-10.157 7.136-7.153 4.365 10.582ZM58.88 42.135l-3.519 3.56-2.671 2.678-8.895 8.884-.847.849-9.807-4.083L48.258 38.87l.163-.163 6.386-6.401 4.073 9.83Z"/>
    <path d="M40.083 47.065 34.61 52.55l5.474-5.486ZM46.64 12.444l-33.3 33.378-9.871-4.115 6.972-6.957L34.91 10.223l11.697 2.188.032.033ZM35.498 45.132l-6.973 6.99-10.556-4.377 6.972-6.99 10.557 4.377Z"/>
    <path d="M40.083 47.065 34.61 52.55l5.474-5.486Z"/>
    <path d="M40.083 47.065 34.61 52.55l5.474-5.486ZM71.318 29.719H91.68l-4.072 9.896h-22.45l-4.104-9.896h10.263ZM103.966 0l-4.105 9.896H52.846L48.773 0h11.47v.033L103.965 0ZM69.559 25.049H59.133l-4.399-10.582h10.883l3.942 10.582Z"/>
  </g>
</svg>
