<svg fill="none" viewBox="0 0 163 32" xmlns="http://www.w3.org/2000/svg">
  <path fill="currentColor" d="M144.1 16.09c-.841-.563-1.769-.963-2.648-1.463-.569-.325-1.175-.613-1.67-1.025-.841-.7-.668-2.075.21-2.675 1.262-.85 3.353-.375 3.576 1.362 0 .038.037.063.074.063h1.906c.049 0 .086-.038.074-.088-.099-1.2-.557-2.2-1.398-2.837-.804-.613-1.72-.938-2.697-.938-5.036 0-5.494 5.388-2.784 7.088.309.2 2.969 1.55 3.909 2.137.941.588 1.238 1.663.829 2.513-.371.774-1.336 1.312-2.301 1.25-1.052-.063-1.868-.638-2.153-1.538a2.784 2.784 0 0 1-.074-.613c0-.037-.037-.075-.074-.075h-2.066c-.037 0-.075.038-.075.075 0 1.513.372 2.35 1.386 3.113a4.934 4.934 0 0 0 3.069 1.025c2.82 0 4.28-1.612 4.577-3.287.26-1.638-.222-3.113-1.67-4.088ZM54.387 8.765H52.47c-.037 0-.061.025-.074.05l-1.695 5.65a.077.077 0 0 1-.148 0l-1.695-5.65c-.013-.038-.037-.05-.074-.05H45.628c-.038 0-.075.037-.075.075v14.424c0 .038.038.075.075.075h2.066c.037 0 .074-.037.074-.075V12.302c0-.087.124-.1.148-.025l1.708 5.688.124.4c.012.037.037.05.074.05h1.584c.037 0 .061-.026.074-.05l.123-.4 1.708-5.688c.025-.087.148-.062.148.025v10.962c0 .038.037.075.074.075H55.6c.037 0 .074-.037.074-.075V8.84c0-.038-.037-.075-.074-.075h-1.213ZM112.462 8.765a.083.083 0 0 0-.074.05l-1.695 5.65a.077.077 0 0 1-.148 0l-1.695-5.65c-.013-.038-.038-.05-.075-.05h-3.142c-.037 0-.074.037-.074.075v14.424c0 .038.037.075.074.075h2.066c.037 0 .074-.037.074-.075V12.302c0-.087.124-.1.149-.025l1.707 5.688.124.4c.012.037.037.05.074.05h1.584a.083.083 0 0 0 .074-.05l.124-.4 1.707-5.688c.025-.087.148-.062.148.025v10.962c0 .038.038.075.075.075h2.066c.037 0 .074-.037.074-.075V8.84c0-.038-.037-.075-.074-.075h-3.143ZM85.811 8.765H76.05c-.037 0-.075.037-.075.075v1.8c0 .037.038.075.075.075h3.773v12.55c0 .037.037.074.075.074h2.066c.037 0 .074-.037.074-.075v-12.55h3.773c.038 0 .075-.037.075-.074v-1.8c0-.038-.025-.075-.075-.075ZM98 23.34h1.882c.049 0 .086-.05.074-.1L96.07 8.764c-.013-.038-.037-.05-.074-.05h-2.698c-.037 0-.061.025-.074.05L89.34 23.239c-.012.05.025.1.075.1h1.88c.037 0 .062-.024.074-.05l1.126-4.212c.013-.037.037-.05.075-.05h4.157c.037 0 .061.025.074.05l1.126 4.212c.012.025.05.05.074.05Zm-4.936-6.375 1.51-5.638a.077.077 0 0 1 .148 0l1.51 5.638c.012.05-.025.1-.075.1H93.14c-.05 0-.087-.05-.075-.1ZM130.069 23.34h1.88c.05 0 .087-.05.075-.1l-3.885-14.475c-.013-.038-.038-.05-.075-.05h-2.697a.083.083 0 0 0-.074.05l-3.885 14.474c-.012.05.025.1.074.1h1.881a.083.083 0 0 0 .074-.05l1.126-4.212c.012-.037.037-.05.074-.05h4.157c.037 0 .062.025.075.05l1.125 4.212c.013.025.038.05.075.05Zm-4.937-6.375 1.51-5.638a.077.077 0 0 1 .148 0l1.509 5.638c.013.05-.024.1-.074.1h-3.019c-.049 0-.086-.05-.074-.1ZM64.064 21.202v-4.475c0-.037.037-.075.074-.075h5.506c.037 0 .074-.037.074-.075v-1.8c0-.037-.037-.075-.074-.075h-5.506c-.037 0-.074-.037-.074-.075v-3.825c0-.037.037-.075.074-.075h6.26c.038 0 .075-.037.075-.075v-1.8c0-.037-.037-.075-.074-.075h-8.475c-.038 0-.075.038-.075.075V23.265c0 .037.038.075.075.075h8.735c.037 0 .074-.038.074-.075v-1.9c0-.038-.037-.075-.075-.075h-6.532c-.037-.013-.062-.038-.062-.088ZM162.977 23.215l-7.151-7.463a.076.076 0 0 1 0-.1l6.434-6.75a.072.072 0 0 0-.05-.125h-2.635c-.025 0-.037.013-.05.025l-5.456 5.725c-.049.05-.123.013-.123-.05V8.852c0-.037-.038-.075-.075-.075h-2.066c-.037 0-.074.038-.074.075v14.425c0 .037.037.075.074.075h2.066c.037 0 .075-.038.075-.075v-6.35c0-.062.086-.1.123-.05l6.186 6.45a.098.098 0 0 0 .05.025h2.635c.05-.012.087-.1.037-.137Z"/>
  <path fill="#E17726" stroke="#E17726" stroke-linecap="round" stroke-linejoin="round" d="m31.435 1-12.508 9.375 2.326-5.525L31.435 1Z"/>
  <path fill="#E27625" stroke="#E27625" stroke-linecap="round" stroke-linejoin="round" d="m2.583 1 12.397 9.462-2.215-5.612L2.583 1ZM26.933 22.736l-3.329 5.15 7.127 1.988 2.041-7.025-5.84-.113ZM1.26 22.849l2.03 7.025 7.114-1.988-3.316-5.15-5.828.113Z"/>
  <path fill="#E27625" stroke="#E27625" stroke-linecap="round" stroke-linejoin="round" d="m10.02 14.039-1.98 3.025 7.053.325-.235-7.688-4.838 4.338ZM24.001 14.038l-4.912-4.425-.16 7.775 7.052-.325L24 14.038ZM10.403 27.888l4.269-2.088-3.675-2.9-.594 4.988ZM19.35 25.8l4.256 2.088-.582-4.988-3.674 2.9Z"/>
  <path fill="#D5BFB2" stroke="#D5BFB2" stroke-linecap="round" stroke-linejoin="round" d="m23.604 27.885-4.256-2.087.347 2.8-.038 1.187 3.947-1.9ZM10.402 27.885l3.959 1.9-.025-1.187.334-2.8-4.268 2.087Z"/>
  <path fill="#233447" stroke="#233447" stroke-linecap="round" stroke-linejoin="round" d="m14.435 21.051-3.538-1.05 2.5-1.162 1.038 2.212ZM19.584 21.051l1.04-2.212L23.134 20l-3.55 1.05Z"/>
  <path fill="#CC6228" stroke="#CC6228" stroke-linecap="round" stroke-linejoin="round" d="m10.401 27.887.619-5.15-3.935.113 3.316 5.037ZM22.996 22.737l.606 5.15 3.329-5.037-3.935-.113ZM25.978 17.063l-7.053.325.656 3.662 1.04-2.213L23.13 20l2.847-2.938ZM10.896 20l2.5-1.163 1.038 2.213.656-3.663-7.052-.325L10.896 20Z"/>
  <path fill="#E27525" stroke="#E27525" stroke-linecap="round" stroke-linejoin="round" d="m8.038 17.063 2.957 5.837-.099-2.9-2.858-2.938ZM23.132 20l-.111 2.9 2.957-5.837L23.132 20ZM15.09 17.388l-.657 3.662.83 4.325.186-5.7-.36-2.287ZM18.926 17.388l-.347 2.275.174 5.712.83-4.325-.657-3.662Z"/>
  <path fill="#F5841F" stroke="#F5841F" stroke-linecap="round" stroke-linejoin="round" d="m19.584 21.052-.83 4.325.595.425 3.674-2.9.112-2.9-3.551 1.05ZM10.897 20.002l.099 2.9 3.674 2.9.594-.425-.829-4.325-3.538-1.05Z"/>
  <path fill="#C0AC9D" stroke="#C0AC9D" stroke-linecap="round" stroke-linejoin="round" d="m19.657 29.788.037-1.188-.322-.275h-4.726l-.31.275.025 1.188-3.959-1.9 1.386 1.15L14.596 31h4.813l2.821-1.962 1.373-1.15-3.946 1.9Z"/>
  <path fill="#161616" stroke="#161616" stroke-linecap="round" stroke-linejoin="round" d="m19.347 25.801-.594-.425h-3.49l-.593.425-.334 2.8.31-.275h4.726l.321.275-.346-2.8Z"/>
  <path fill="#763E1A" stroke="#763E1A" stroke-linecap="round" stroke-linejoin="round" d="m31.968 10.987 1.052-5.175L31.436 1 19.35 10.062 24 14.037l6.57 1.938 1.448-1.713-.631-.462 1.002-.925-.767-.6 1.002-.775-.656-.513ZM1 5.812l1.064 5.175-.68.513 1.014.775-.767.6 1.002.925-.63.462 1.447 1.713 6.57-1.938 4.651-3.975L2.584 1 1 5.812Z"/>
  <path fill="#F5841F" stroke="#F5841F" stroke-linecap="round" stroke-linejoin="round" d="M30.57 15.975 24 14.037l1.98 3.025-2.957 5.837 3.91-.05h5.84l-2.203-6.874ZM10.019 14.037l-6.57 1.938-2.19 6.874h5.828l3.91.05-2.958-5.837 1.98-3.025ZM18.928 17.39l.42-7.325 1.906-5.212h-8.488l1.906 5.212.42 7.325.161 2.3.013 5.687h3.489l.012-5.687.161-2.3Z"/>
</svg>
