<svg width="40" height="40" viewBox="0 0 40 40" fill="none" xmlns="http://www.w3.org/2000/svg">
  <path d="M28.6487 0H11.6216L0 11.9824V28.1057L11.8018 40H28.6487L40 28.1057V11.5419L28.6487 0Z" fill="currentColor"/>
  <path d="M29.9608 13.1441C29.2121 13.5091 28.4188 13.7501 27.6067 13.8592C28.4618 13.2901 29.102 12.3976 29.4092 11.3465C28.6167 11.8586 27.7383 12.2314 26.8033 12.4391C26.1865 11.7086 25.3691 11.2242 24.478 11.0609C23.587 10.8977 22.6722 11.0647 21.8758 11.5362C21.0793 12.0077 20.4457 12.7572 20.0734 13.6683C19.701 14.5794 19.6108 15.6012 19.8167 16.5749C16.4083 16.3968 13.3892 14.5836 11.3667 11.8448C10.999 12.5367 10.8072 13.3259 10.8117 14.1287C10.8117 15.7066 11.5367 17.0935 12.635 17.9083C11.984 17.8854 11.3475 17.6905 10.7783 17.3399V17.3953C10.778 18.4439 11.1052 19.4604 11.7046 20.2722C12.304 21.0841 13.1385 21.6414 14.0667 21.8495C13.4652 22.0279 12.8353 22.0547 12.2233 21.9279C12.4868 22.8304 12.9981 23.6193 13.6858 24.1845C14.3736 24.7498 15.2036 25.0632 16.06 25.081C14.6096 26.3415 12.8187 27.0256 10.975 27.0234C10.65 27.0234 10.3258 27.0022 10 26.9616C11.8798 28.2944 14.0654 29.0018 16.2975 29C23.8417 29 27.9625 22.0829 27.9625 16.0951C27.9625 15.9013 27.9625 15.7075 27.95 15.5137C28.755 14.8723 29.4494 14.0759 30 13.1625L29.9608 13.1441Z" fill="#323E52"/>
</svg>
