<svg fill="none" viewBox="0 0 182 30" xmlns="http://www.w3.org/2000/svg">
  <path fill="currentColor" fill-rule="evenodd" d="m65.742 16.429-2.5 9.098h-2.6l-3.485-13.315h2.856l2.07 9.643h.073l2.464-9.643h2.326l2.463 9.643h.073l2.08-9.643h2.855l-3.494 13.315h-2.6l-2.5-9.098h-.081Zm12.47 7.308c1.159 0 2.117-.766 2.117-1.836v-.72l-2.062.13c-.994.073-1.56.525-1.56 1.226 0 .739.602 1.2 1.505 1.2Zm-.876 1.947c-1.86 0-3.275-1.218-3.275-2.999 0-1.8 1.369-2.842 3.804-2.99l2.464-.147v-.655c0-.923-.639-1.459-1.642-1.459-.995 0-1.624.499-1.752 1.228h-2.436c.1-1.92 1.715-3.24 4.306-3.24 2.509 0 4.142 1.311 4.142 3.304v6.801h-2.573v-1.513h-.054c-.548 1.052-1.761 1.67-2.984 1.67Zm7.39-.157V12.212h2.663v13.315h-2.663Zm4.525 0V12.212h2.663v13.315h-2.663Zm8.849-8.111c-1.168 0-2.007.895-2.099 2.132h4.151c-.055-1.265-.867-2.132-2.052-2.132Zm2.089 5.084h2.444c-.292 1.938-2.043 3.24-4.46 3.24-3.011 0-4.817-1.948-4.817-5.113 0-3.156 1.824-5.204 4.716-5.204 2.846 0 4.643 1.947 4.643 4.955v.821h-6.741v.166c0 1.412.885 2.381 2.244 2.381.976 0 1.724-.489 1.971-1.246Zm4.606-9.144h2.664v2.28h1.807v2.03h-1.807v4.733c0 .757.365 1.116 1.15 1.116.237 0 .483-.018.647-.046v1.984c-.273.065-.729.111-1.268.111-2.299 0-3.193-.775-3.193-2.704v-5.195h-1.377v-2.03h1.377v-2.28Zm11.978 12.402c-3.831 0-6.23-2.593-6.23-6.893 0-4.291 2.417-6.884 6.23-6.884 3.166 0 5.574 2.03 5.784 5.01h-2.682c-.255-1.633-1.496-2.703-3.102-2.703-2.08 0-3.421 1.762-3.421 4.567 0 2.843 1.323 4.596 3.431 4.596 1.632 0 2.809-.969 3.101-2.547h2.682c-.31 2.971-2.563 4.854-5.793 4.854Zm11.75-.019c-2.955 0-4.844-1.919-4.844-5.167 0-3.202 1.916-5.15 4.844-5.15 2.929 0 4.844 1.939 4.844 5.15 0 3.257-1.888 5.167-4.844 5.167Zm0-2.057c1.305 0 2.135-1.117 2.135-3.1 0-1.966-.839-3.101-2.135-3.101-1.295 0-2.143 1.135-2.143 3.1 0 1.984.83 3.1 2.143 3.1Zm6.213 1.845v-9.892h2.572v1.763h.055c.52-1.228 1.551-1.947 3.056-1.947 2.171 0 3.394 1.384 3.394 3.7v6.376h-2.664v-5.813c0-1.292-.602-2.03-1.797-2.03-1.195 0-1.952.886-1.952 2.168v5.675h-2.664Zm10.764 0v-9.892h2.573v1.763h.055c.52-1.228 1.551-1.947 3.056-1.947 2.171 0 3.393 1.384 3.393 3.7v6.376h-2.663v-5.813c0-1.292-.602-2.03-1.797-2.03-1.196 0-1.953.886-1.953 2.168v5.675H145.5Zm15.153-8.111c-1.168 0-2.007.895-2.098 2.132h4.151c-.055-1.265-.867-2.132-2.053-2.132Zm2.089 5.084h2.445c-.292 1.938-2.043 3.24-4.461 3.24-3.01 0-4.817-1.948-4.817-5.113 0-3.156 1.825-5.204 4.717-5.204 2.846 0 4.643 1.947 4.643 4.955v.821h-6.741v.166c0 1.412.884 2.381 2.244 2.381.976 0 1.724-.489 1.97-1.246Zm12.781-3.183h-2.472c-.155-1.043-.84-1.781-1.934-1.781-1.314 0-2.135 1.126-2.135 3.036 0 1.947.821 3.054 2.144 3.054 1.067 0 1.761-.646 1.925-1.725h2.481c-.137 2.334-1.861 3.838-4.433 3.838-2.947 0-4.817-1.938-4.817-5.167 0-3.174 1.87-5.15 4.798-5.15 2.646 0 4.324 1.653 4.443 3.895Zm2.007-5.961h2.664v2.28H182v2.03h-1.806v4.733c0 .757.365 1.116 1.149 1.116.237 0 .484-.018.648-.046v1.984c-.274.065-.73.111-1.268.111-2.299 0-3.193-.775-3.193-2.704v-5.195h-1.378v-2.03h1.378v-2.28Z" clip-rule="evenodd"/>
  <path fill="#3B99FC" d="M9.907 5.861c7.891-7.815 20.686-7.815 28.577 0l.95.941a.994.994 0 0 1 0 1.415l-3.25 3.218a.509.509 0 0 1-.713 0l-1.307-1.295c-5.506-5.452-14.432-5.452-19.937 0l-1.4 1.386a.509.509 0 0 1-.714 0L8.864 8.31a.994.994 0 0 1 0-1.415L9.907 5.86Zm35.296 6.655 2.892 2.863a.994.994 0 0 1 0 1.415L35.057 29.707c-.395.39-1.035.39-1.43 0l-9.253-9.164a.254.254 0 0 0-.357 0l-9.254 9.164c-.394.39-1.034.39-1.429 0L.296 16.794a.994.994 0 0 1 0-1.415l2.891-2.864a1.017 1.017 0 0 1 1.43 0l9.253 9.165a.254.254 0 0 0 .357 0l9.254-9.165a1.017 1.017 0 0 1 1.429 0l9.253 9.165a.254.254 0 0 0 .358 0l9.253-9.164a1.017 1.017 0 0 1 1.43 0Z"/>
</svg>
